<?xml version="1.0" encoding="UTF-8"?>
<svg version="1.1" xmlns="http://www.w3.org/2000/svg" width="500" height="500">
<path d="M0 0 C165 0 330 0 500 0 C500 165 500 330 500 500 C335 500 170 500 0 500 C0 335 0 170 0 0 Z " fill="#FEFEFE" transform="translate(0,0)"/>
<path d="M0 0 C165 0 330 0 500 0 C500 165 500 330 500 500 C335 500 170 500 0 500 C0 335 0 170 0 0 Z M44.5859375 51.6484375 C42.62082767 54.04042512 40.78399904 56.47089396 39 59 C38.53207031 59.64195313 38.06414063 60.28390625 37.58203125 60.9453125 C29.10642035 73.41098022 26.6931579 87.37999769 26.73930359 102.09855652 C26.73547804 103.39902162 26.73165249 104.69948673 26.72771102 106.03935987 C26.71746694 109.62912986 26.71960365 113.21879958 26.72389162 116.80857766 C26.72636546 120.68807994 26.7173364 124.56755849 26.70985413 128.447052 C26.69712235 136.04054406 26.69531162 143.63400072 26.69765439 151.22750165 C26.69943978 157.40327712 26.69768315 163.57904187 26.69342995 169.75481606 C26.69283476 170.63489476 26.69223957 171.51497347 26.69162634 172.42172122 C26.69041454 174.20983018 26.68920041 175.99793914 26.68798397 177.78604809 C26.67711382 194.54596924 26.67926815 211.30587026 26.68536881 228.06579254 C26.69053478 243.37822231 26.67929006 258.69058841 26.66027059 274.00300559 C26.64086896 289.74443687 26.63264044 305.48583808 26.63639385 321.22728139 C26.63830271 330.0573313 26.63584926 338.88732705 26.62167931 347.71736717 C26.60973471 355.23652781 26.60839484 362.75560098 26.62046947 370.27476289 C26.62633726 374.10639586 26.62751632 377.93786909 26.61546707 381.7694912 C26.60251998 385.93529434 26.61312281 390.1007212 26.6257782 394.26652527 C26.61840391 395.46081892 26.61102963 396.65511257 26.60343188 397.88559693 C26.71771083 415.86069876 31.663139 432.00359706 43 446 C43.74056641 446.96873047 43.74056641 446.96873047 44.49609375 447.95703125 C51.2945376 456.4887894 60.32660601 462.21595756 70 467 C71.11375 467.556875 72.2275 468.11375 73.375 468.6875 C83.35434642 472.30071163 92.98448182 473.44032546 103.54161072 473.38095093 C104.84140997 473.3856309 106.14120922 473.39031087 107.48039633 473.39513266 C111.04977774 473.40753938 114.61891541 473.40152004 118.18829715 473.39217401 C122.05273752 473.38534092 125.91713816 473.39588574 129.78157043 473.40411377 C137.33710207 473.41740856 144.89254398 473.41459231 152.44807904 473.40587585 C158.59277448 473.39908239 164.7374449 473.39818975 170.88214302 473.4014473 C171.75890441 473.401907 172.63566579 473.40236669 173.5389957 473.40284032 C175.32050153 473.40379957 177.10200735 473.40477221 178.88351316 473.4057581 C195.56382375 473.41429966 212.24408477 473.40449752 228.92438722 473.388357 C243.21418336 473.37495729 257.50390636 473.37728145 271.79370117 473.39111328 C288.41547824 473.40719499 305.03721192 473.41347334 321.65899569 473.40427649 C323.43401086 473.40332091 325.20902603 473.4023778 326.98404121 473.4014473 C327.85722347 473.40098447 328.73040572 473.40052164 329.63004805 473.40004479 C335.76165074 473.39746249 341.89322574 473.4018095 348.02482414 473.40888596 C355.50546641 473.41733011 362.98601433 473.41495996 370.46664589 473.39904372 C374.2780499 473.39119966 378.08929703 473.38800272 381.90069962 473.39799118 C386.0444028 473.40868562 390.18771541 473.39585254 394.33140564 473.38095093 C395.51907986 473.38764309 396.70675408 473.39433526 397.93041843 473.40123022 C418.67315454 473.25731509 438.2878991 465.86377204 453 451 C467.81890201 435.33679905 473.15037504 416.18743215 473.14717102 395.14868164 C473.15268605 393.20160561 473.15268605 393.20160561 473.1583125 391.2151947 C473.16828734 387.62286574 473.17204197 384.03055348 473.17470181 380.43821263 C473.17861829 376.55934144 473.18819559 372.6804833 473.19691467 368.80162048 C473.21664036 359.43990879 473.22673996 350.07819608 473.23564246 340.71646881 C473.24003141 336.30227082 473.24539661 331.88807401 473.25063133 327.47387695 C473.26763907 312.79090626 473.28213211 298.1079363 473.28938007 283.42495728 C473.2912898 279.61810302 473.29321016 275.81124877 473.29516602 272.00439453 C473.29564976 271.05828159 473.2961335 270.11216864 473.2966319 269.13738561 C473.30492809 253.81902571 473.3302601 238.500744 473.36274669 223.18241823 C473.39586412 207.43765985 473.41383303 191.69294115 473.41702431 175.94814777 C473.41918498 167.11521361 473.42786866 158.28239351 473.45348549 149.44949341 C473.4752565 141.92554595 473.48321154 134.40174027 473.47351871 126.87776488 C473.46899257 123.0439426 473.47076094 119.21041246 473.49028015 115.37663078 C473.60587579 91.31772667 472.10580917 72.13523518 456 53 C455.236875 51.989375 454.47375 50.97875 453.6875 49.9375 C442.36410902 37.56077033 424.24332061 27.66023779 407.22137034 26.87119883 C406.26023778 26.86941026 405.29910522 26.86762169 404.30884743 26.86577892 C403.19208173 26.86132108 402.07531604 26.85686324 400.92470896 26.85227031 C399.70799647 26.85245467 398.49128398 26.85263903 397.23770142 26.85282898 C395.93712716 26.84915229 394.63655291 26.8454756 393.29656732 26.8416875 C389.69250806 26.83169993 386.08846545 26.82795594 382.48439431 26.82529819 C378.5945797 26.82138541 374.70477816 26.81180767 370.81497192 26.80308533 C361.42317437 26.78334701 352.03137577 26.77325744 342.63956267 26.76435754 C338.21154464 26.75996978 333.7835278 26.75460419 329.35551071 26.74936867 C314.62625947 26.732358 299.89700896 26.7178657 285.1677494 26.71061993 C281.34767277 26.70871018 277.52759614 26.70678983 273.70751953 26.70483398 C272.2834094 26.70410837 272.2834094 26.70410837 270.83052938 26.7033681 C255.46428261 26.69507477 240.09811386 26.66974891 224.73190112 26.63725331 C208.93857905 26.60412814 193.14529654 26.58616619 177.35193956 26.58297569 C168.49157202 26.58081549 159.63131822 26.57213911 150.77098465 26.54651451 C143.22215515 26.52473271 135.67346702 26.51679362 128.12460966 26.52648129 C124.27851916 26.53100463 120.43271987 26.52925574 116.58666992 26.50971985 C88.23418109 26.37387221 64.6136954 29.67623708 44.5859375 51.6484375 Z " fill="#000000" transform="translate(0,0)"/>
<path d="M0 0 C0.88602402 0.00222061 1.77204803 0.00444122 2.68492126 0.00672913 C3.68588333 0.00680466 4.6868454 0.00688019 5.71813965 0.00695801 C6.80666733 0.01211929 7.89519501 0.01728058 9.01670837 0.02259827 C10.67928932 0.02472069 10.67928932 0.02472069 12.37545776 0.02688599 C15.93168281 0.03250418 19.48784596 0.04505977 23.04405212 0.05775452 C25.44834809 0.06276717 27.85264504 0.06733048 30.25694275 0.07142639 C36.16516716 0.08247952 42.07335522 0.09923535 47.98155212 0.12025452 C55.71766564 21.31694683 63.2743175 42.57388241 70.73155212 63.87025452 C71.15848358 65.0894458 71.58541504 66.30863708 72.02528381 67.56477356 C72.45437042 68.79012817 72.88345703 70.01548279 73.32554626 71.27796936 C78.74595988 86.7560304 84.18949031 102.22553357 89.66905212 117.68275452 C90.35289629 119.61292807 91.03673421 121.54310384 91.7205658 123.47328186 C95.00395901 132.73796388 98.29382922 142.00031137 101.59176636 151.25982666 C103.19189427 155.75380589 104.78969733 160.24860992 106.38722229 164.74351501 C107.15375742 166.89817294 107.92146362 169.05241463 108.69038391 171.20622253 C109.74987029 174.17397629 110.80557462 177.14304976 111.86045837 180.11244202 C112.17828278 180.99950333 112.49610718 181.88656464 112.82356262 182.80050659 C113.10974457 183.60840134 113.39592651 184.41629608 113.69078064 185.24867249 C113.94150833 185.95216827 114.19223602 186.65566406 114.45056152 187.38047791 C114.98155212 189.12025452 114.98155212 189.12025452 114.98155212 191.12025452 C100.46155212 191.12025452 85.94155212 191.12025452 70.98155212 191.12025452 C68.50655212 182.70525452 68.50655212 182.70525452 65.98155212 174.12025452 C64.43593683 169.04528147 62.8826456 163.9731479 61.31358337 158.90541077 C61.02354431 157.96052795 60.73350525 157.01564514 60.43467712 156.04212952 C60.17847595 155.21294006 59.92227478 154.38375061 59.65830994 153.5294342 C58.97350585 151.09161071 58.47815365 148.60326216 57.98155212 146.12025452 C34.88155212 146.12025452 11.78155212 146.12025452 -12.01844788 146.12025452 C-12.34844788 147.77025452 -12.67844788 149.42025452 -13.01844788 151.12025452 C-13.48107254 152.76714491 -13.96658053 154.40773291 -14.47157288 156.04212952 C-14.90663147 157.45945374 -14.90663147 157.45945374 -15.35047913 158.90541077 C-15.65340881 159.8838092 -15.9563385 160.86220764 -16.26844788 161.87025452 C-19.26868481 171.5974801 -22.14560702 181.35259559 -25.01844788 191.12025452 C-39.53844788 191.12025452 -54.05844788 191.12025452 -69.01844788 191.12025452 C-66.97809874 183.63897434 -64.83229914 176.41000308 -62.23719788 169.13197327 C-61.6889032 167.57891228 -61.6889032 167.57891228 -61.12953186 165.99447632 C-59.92942563 162.59762121 -58.72390608 159.2027136 -57.51844788 155.80775452 C-56.66581908 153.39709406 -55.81361329 150.98628394 -54.96180725 148.57533264 C-53.41602346 144.20105886 -51.86922891 139.82714707 -50.3207016 135.45384407 C-46.42653435 124.45545668 -42.55570341 113.44889349 -38.68626404 102.44178772 C-36.7316466 96.8824138 -34.77534124 91.32363391 -32.81922913 85.76478577 C-29.92027914 77.52583843 -27.02157475 69.28680471 -24.12303162 61.04771423 C-22.39876012 56.1465049 -20.67442656 51.24531739 -18.9500885 46.34413147 C-18.13446517 44.02578296 -17.31887165 41.70742396 -16.50331116 39.38905334 C-15.92492493 37.74489441 -15.92492493 37.74489441 -15.33485413 36.06752014 C-14.95946503 35.0003476 -14.58407593 33.93317505 -14.1973114 32.83366394 C-13.47242997 30.77368858 -12.74716211 28.71384915 -12.02146912 26.65415955 C-10.40068335 22.0537349 -8.78403832 17.45200999 -7.18104553 12.84535217 C-6.9012233 12.04410416 -6.62140106 11.24285614 -6.33309937 10.41732788 C-5.81869 8.94385388 -5.30648614 7.46960726 -4.79693604 5.9944458 C-2.75711335 0.16426252 -2.75711335 0.16426252 0 0 Z " fill="#020202" transform="translate(227.01844787597656,157.87974548339844)"/>
<path d="M0 0 C0.33 0 0.66 0 1 0 C1 30.69 1 61.38 1 93 C-28.37 93 -57.74 93 -88 93 C-84.74503553 91.37251777 -83.24212439 90.75687894 -79.875 90.25 C-53.75081811 85.24093858 -31.59674912 71.03950278 -16.47998047 49.07421875 C-11.4414461 41.47111042 -8.06425618 33.5601479 -5 25 C-4.52433594 23.82050781 -4.52433594 23.82050781 -4.0390625 22.6171875 C-1.26902522 15.40412012 -0.7957681 7.63001182 0 0 Z " fill="#FCFCFC" transform="translate(499,407)"/>
<path d="M0 0 C0.33 0 0.66 0 1 0 C1.14695313 0.8971875 1.29390625 1.794375 1.4453125 2.71875 C6.40730748 30.32341173 20.03946901 54.49340749 43.25439453 70.81835938 C51.63246393 76.48966789 60.30379579 81.00183159 70 84 C71.7015625 84.556875 71.7015625 84.556875 73.4375 85.125 C78.57536298 86.38693126 83.77375873 87.19332237 89 88 C89 88.33 89 88.66 89 89 C59.63 89 30.26 89 0 89 C0 59.63 0 30.26 0 0 Z " fill="#FCFCFC" transform="translate(0,411)"/>
<path d="M0 0 C29.37 0 58.74 0 89 0 C89 29.37 89 58.74 89 89 C88.67 89 88.34 89 88 89 C87.85304688 88.030625 87.70609375 87.06125 87.5546875 86.0625 C83.42558757 60.65733247 70.91482977 36.70173041 50 21 C39.93402758 13.81541946 29.72404787 8.84735939 18 5 C16.989375 4.64164062 15.97875 4.28328125 14.9375 3.9140625 C11.83903706 2.94991313 8.82974278 2.37351554 5.625 1.875 C4.56539063 1.70742188 3.50578125 1.53984375 2.4140625 1.3671875 C1.21910156 1.18542969 1.21910156 1.18542969 0 1 C0 0.67 0 0.34 0 0 Z " fill="#FCFCFC" transform="translate(411,0)"/>
<path d="M0 0 C29.37 0 58.74 0 89 0 C89 0.33 89 0.66 89 1 C88.34257813 1.07476562 87.68515625 1.14953125 87.0078125 1.2265625 C61.45033962 4.75889615 37.71047279 17.82526613 21.8125 38.3125 C10.144417 53.85643146 3.89282061 69.91753422 1 89 C0.67 89 0.34 89 0 89 C0 59.63 0 30.26 0 0 Z " fill="#FDFDFD" transform="translate(0,0)"/>
<path d="M0 0 C0.66 0 1.32 0 2 0 C2.91730682 2.89563186 3.83385147 5.79150165 4.75 8.6875 C5.00265625 9.48478516 5.2553125 10.28207031 5.515625 11.10351562 C6.94677525 15.6295283 8.35914992 20.16065533 9.75 24.69921875 C11.32302943 29.8243839 12.91967393 34.9417349 14.52618408 40.0565033 C15.78075682 44.05096724 17.03196743 48.04648188 18.28320312 52.04199219 C18.93348742 54.11567656 19.58520513 56.18891193 20.23828125 58.26171875 C21.1888407 61.28002905 22.13399841 64.29998481 23.078125 67.3203125 C23.37180969 68.248367 23.66549438 69.17642151 23.96807861 70.13259888 C24.23545837 70.99134613 24.50283813 71.85009338 24.77832031 72.73486328 C25.01496399 73.48841095 25.25160767 74.24195862 25.49542236 75.01834106 C26 77 26 77 26 80 C9.83 80 -6.34 80 -23 80 C-21.87499317 70.99994537 -21.87499317 70.99994537 -20.78833008 67.5378418 C-20.54750198 66.7589006 -20.30667389 65.97995941 -20.05854797 65.17741394 C-19.6679847 63.95070732 -19.6679847 63.95070732 -19.26953125 62.69921875 C-18.99662766 61.82336624 -18.72372406 60.94751373 -18.44255066 60.04512024 C-17.5722125 57.25721367 -16.69252863 54.4723609 -15.8125 51.6875 C-15.24091889 49.86152132 -14.66995062 48.0353507 -14.09960938 46.20898438 C-11.8499329 39.01543582 -9.58052611 31.82818021 -7.30175781 24.64379883 C-7.03062668 23.78804764 -6.75949554 22.93229645 -6.48014832 22.0506134 C-5.9717156 20.44674529 -5.46228045 18.84319443 -4.95161438 17.24003601 C-3.14238157 11.53496502 -1.48550038 5.79866377 0 0 Z " fill="#F9F9F9" transform="translate(249,190)"/>
</svg>
