<svg width="36" height="35" viewBox="0 0 36 35" fill="none" xmlns="http://www.w3.org/2000/svg">
<path d="M31.2601 6.72289C30.4939 5.97769 29.5843 5.38654 28.5831 4.98322C27.5819 4.5799 26.5088 4.37231 25.4251 4.37231C24.3413 4.37231 23.2682 4.5799 22.267 4.98322C21.2658 5.38654 20.3562 5.97769 19.5901 6.72289L18.0001 8.26873L16.4101 6.72289C14.8625 5.21834 12.7636 4.37309 10.5751 4.37309C8.38651 4.37309 6.28759 5.21834 4.74006 6.72289C3.19252 8.22744 2.32312 10.2681 2.32312 12.3958C2.32312 14.5236 3.19252 16.5642 4.74006 18.0687L18.0001 30.9604L31.2601 18.0687C32.0265 17.3239 32.6346 16.4395 33.0494 15.4661C33.4643 14.4927 33.6778 13.4494 33.6778 12.3958C33.6778 11.3422 33.4643 10.2989 33.0494 9.3255C32.6346 8.35212 32.0265 7.46775 31.2601 6.72289Z" stroke="#1E1E1E" stroke-width="2" stroke-linecap="round" stroke-linejoin="round"/>
</svg>
