<svg version="1.1" id="Layer_1" xmlns="http://www.w3.org/2000/svg" xmlns:xlink="http://www.w3.org/1999/xlink" x="0px" y="0px"
	 width="100%" viewBox="0 0 500 500" enable-background="new 0 0 500 500" xml:space="preserve">
<path fill="#010101" opacity="1.000000" stroke="none" 
	d="
M0.999997,414.000000 
	C1.000000,305.645233 1.000000,197.290466 1.369198,88.327972 
	C1.841703,87.235771 1.952791,86.752800 2.047213,86.266602 
	C10.356877,43.477905 34.995453,15.618260 77.331200,3.960670 
	C81.199265,2.895557 85.109398,1.983259 89.000000,1.000000 
	C196.354767,1.000000 303.709534,1.000000 411.670593,1.387191 
	C453.024445,5.720883 488.208679,36.506317 498.019135,76.795738 
	C499.009857,80.864532 500.006226,84.931946 501.000000,89.000000 
	C501.000000,197.021439 501.000000,305.042877 500.630920,413.671600 
	C497.881256,422.812958 496.446930,431.757812 492.951660,439.807861 
	C479.838745,470.008240 457.231842,489.610870 425.182556,497.952972 
	C420.819580,499.088623 416.395691,499.990112 412.000000,501.000000 
	C304.311890,501.000000 196.623810,501.000000 88.344498,500.623413 
	C87.106972,500.108948 86.462906,499.959351 85.814018,499.834869 
	C42.383312,491.503204 15.076127,465.839142 3.499789,423.264648 
	C2.660520,420.178070 1.832985,417.088287 0.999997,414.000000 
M389.366730,91.055130 
	C379.656006,90.138718 369.945282,89.222305 359.719666,88.257301 
	C359.992310,92.119934 360.209045,95.575668 360.485046,99.026649 
	C361.228271,108.318466 363.179230,117.692474 362.524567,126.882385 
	C360.833954,150.614410 357.996796,174.264725 355.617798,197.947708 
	C352.407043,229.911362 349.193359,261.874725 345.986664,293.838776 
	C343.128693,322.326996 340.269989,350.815094 337.429993,379.305084 
	C336.514526,388.488922 335.657440,397.678589 334.750671,407.104584 
	C381.911743,401.628143 428.310211,396.240234 474.613708,390.863373 
	C474.613708,293.483002 474.613708,196.481689 474.613708,99.439751 
	C446.250793,96.640961 418.264648,93.879349 389.366730,91.055130 
M317.100830,320.638306 
	C319.415833,297.620972 321.726105,274.603149 324.047089,251.586441 
	C326.902313,223.271652 329.318665,194.903290 332.754639,166.659027 
	C336.089661,139.244873 336.932526,111.933739 333.077728,84.554443 
	C332.898590,83.282173 332.156769,81.575195 331.151764,81.018028 
	C325.401733,77.830238 319.492584,74.929405 313.594269,71.909012 
	C307.848083,79.787079 302.290588,87.256416 296.938477,94.870110 
	C295.859497,96.405052 295.195251,98.441017 294.955688,100.324341 
	C292.415314,120.297348 290.002319,140.286545 287.548798,160.270615 
	C283.371979,194.290634 279.187103,228.309631 275.013336,262.330017 
	C271.467712,291.230499 267.914825,320.130066 264.404236,349.034790 
	C263.321472,357.949799 260.695221,367.074158 261.702148,375.763550 
	C263.795868,393.832336 267.845734,411.674408 271.153229,429.950043 
	C282.900635,424.528870 294.222626,419.375702 305.447205,414.018463 
	C306.629456,413.454193 307.883942,411.755951 308.018250,410.470306 
	C311.113708,380.839447 314.058472,351.192841 317.100830,320.638306 
M272.398956,84.094604 
	C276.660309,78.283356 280.921661,72.472107 285.321198,66.472404 
	C284.371185,66.201225 284.077271,66.043854 283.783264,66.043785 
	C225.000854,66.029839 166.218384,66.006210 107.436256,66.133850 
	C105.830231,66.137337 103.751274,67.393997 102.701088,68.710846 
	C95.959755,77.163910 89.423584,85.781357 82.879395,94.389938 
	C82.004555,95.540764 81.027039,96.885971 80.840080,98.243477 
	C79.538170,107.696526 78.432350,117.176575 77.246490,126.787247 
	C140.206741,126.787247 202.605865,126.787247 265.378357,126.787247 
	C266.598572,116.774681 267.664520,106.874619 269.072418,97.023430 
	C269.665985,92.870041 270.980774,88.819733 272.398956,84.094604 
M346.922852,43.568020 
	C383.887482,47.344807 420.852112,51.121590 458.768890,54.995659 
	C457.607300,53.534031 457.147644,52.888298 456.621063,52.302788 
	C441.421295,35.402424 422.595215,26.925653 399.722412,26.951334 
	C300.561401,27.062674 201.400146,26.971796 102.239105,27.068624 
	C96.454666,27.074272 90.518631,27.428822 84.912216,28.733917 
	C50.249588,36.802902 27.068802,66.023224 27.025158,101.644485 
	C26.937563,173.140396 26.998131,244.636490 27.009012,316.132507 
	C27.009176,317.212189 27.156761,318.291870 27.235546,319.371582 
	C27.904470,318.897888 28.054874,318.451019 28.109762,317.992737 
	C31.812122,287.080109 35.504356,256.166199 39.202724,225.253098 
	C44.186653,183.594574 49.327522,141.953812 54.040234,100.264656 
	C55.058395,91.257843 57.442936,83.525146 63.532417,76.442596 
	C72.637558,65.852585 80.863373,54.496365 89.248474,43.305161 
	C91.165268,40.746902 93.137863,39.946209 96.249886,39.950924 
	C158.412949,40.045174 220.577118,40.215557 282.738861,39.914017 
	C303.940247,39.811172 325.007324,40.858418 346.922852,43.568020 
M244.953781,291.622803 
	C243.499695,291.447327 242.045654,291.118988 240.591492,291.118347 
	C180.956360,291.092621 121.321213,291.094910 61.686066,291.105957 
	C60.412266,291.106201 59.138489,291.250153 57.587761,291.343781 
	C55.326950,310.335297 53.100590,329.037415 50.872871,347.750946 
	C113.723862,347.750946 175.936981,347.750946 238.441376,347.750946 
	C240.677032,329.180267 242.882263,310.862274 244.953781,291.622803 
M239.076141,399.356018 
	C237.569397,390.951691 236.062653,382.547394 234.578781,374.270691 
	C174.267014,374.270691 114.241554,374.270691 53.854374,374.270691 
	C54.192505,375.335480 54.399269,376.104248 54.677685,376.846130 
	C60.972866,393.620117 67.389626,410.349976 73.486900,427.195526 
	C74.794525,430.808197 76.645874,431.778961 80.336647,431.841187 
	C133.605759,432.739197 186.872040,433.804932 240.139114,434.824951 
	C241.784912,434.856476 243.431839,434.828918 245.598938,434.828918 
	C243.424042,423.046051 241.316223,411.626587 239.076141,399.356018 
M138.492035,152.976456 
	C117.052017,152.976456 95.612000,152.976456 74.124557,152.976456 
	C69.638451,190.546585 65.211266,227.623230 60.774754,264.777954 
	C86.897697,264.777954 112.437462,264.777954 138.125336,264.777954 
	C142.311600,227.458878 146.464981,190.433014 150.666672,152.976456 
	C146.772064,152.976456 143.131531,152.976456 138.492035,152.976456 
M181.014847,188.545654 
	C178.302780,213.944199 175.590714,239.342743 172.865982,264.859924 
	C198.360428,264.859924 223.279083,264.859924 248.530518,264.859924 
	C253.080566,227.585480 257.607605,190.499313 262.160522,153.201294 
	C236.205170,153.201294 210.624756,153.201294 184.869858,153.201294 
	C183.587357,164.814102 182.327194,176.224625 181.014847,188.545654 
M34.366226,397.098511 
	C32.189259,391.273163 30.012293,385.447845 27.835325,379.622498 
	C27.148928,388.659515 27.014303,397.550995 27.216438,406.434845 
	C27.295210,409.896851 27.884935,413.398346 28.662336,416.785400 
	C36.663311,451.644989 65.604317,474.895966 101.848259,474.950653 
	C201.143845,475.100525 300.439850,475.031708 399.735596,474.964844 
	C412.181915,474.956482 424.228821,472.734253 435.307495,466.642578 
	C447.307648,460.044189 457.010468,451.053680 464.875061,438.519379 
	C461.123962,438.887177 458.379639,439.116547 455.645142,439.431030 
	C439.605652,441.275299 423.568634,443.140686 407.530487,444.996674 
	C377.107147,448.517334 346.716522,452.360626 316.249298,455.448212 
	C294.008667,457.702087 271.998566,461.784790 249.389954,461.146576 
	C186.942856,459.383759 124.471947,458.452911 62.008114,457.322601 
	C58.188221,457.253479 56.386703,455.630554 55.167557,452.351105 
	C48.399628,434.145721 41.551502,415.970123 34.366226,397.098511 
z"/>
<path fill="#FDFDFD" opacity="1.000000" stroke="none" 
	d="
M501.000000,88.531342 
	C500.006226,84.931946 499.009857,80.864532 498.019135,76.795738 
	C488.208679,36.506317 453.024445,5.720883 412.138428,1.387191 
	C441.593170,1.000000 471.186310,1.000000 501.000000,1.000000 
	C501.000000,30.020521 501.000000,59.041603 501.000000,88.531342 
z"/>
<path fill="#FDFDFD" opacity="1.000000" stroke="none" 
	d="
M412.468658,501.000000 
	C416.395691,499.990112 420.819580,499.088623 425.182556,497.952972 
	C457.231842,489.610870 479.838745,470.008240 492.951660,439.807861 
	C496.446930,431.757812 497.881256,422.812958 500.630920,414.139465 
	C501.000000,442.927734 501.000000,471.855469 501.000000,501.000000 
	C471.646118,501.000000 442.291718,501.000000 412.468658,501.000000 
z"/>
<path fill="#FDFDFD" opacity="1.000000" stroke="none" 
	d="
M88.531342,1.000000 
	C85.109398,1.983259 81.199265,2.895557 77.331200,3.960670 
	C34.995453,15.618260 10.356877,43.477905 2.047213,86.266602 
	C1.952791,86.752800 1.841703,87.235771 1.369198,87.860123 
	C1.000000,59.072674 1.000000,30.145346 1.000000,1.000000 
	C30.020531,1.000000 59.041607,1.000000 88.531342,1.000000 
z"/>
<path fill="#FDFDFD" opacity="1.000000" stroke="none" 
	d="
M0.999997,414.468658 
	C1.832985,417.088287 2.660520,420.178070 3.499789,423.264648 
	C15.076127,465.839142 42.383312,491.503204 85.814018,499.834869 
	C86.462906,499.959351 87.106972,500.108948 87.876648,500.623413 
	C59.073093,501.000000 30.146185,501.000000 1.000000,501.000000 
	C1.000000,472.312805 1.000000,443.625061 0.999997,414.468658 
z"/>
<path fill="#FFFFFF" opacity="1.000000" stroke="none" 
	d="
M389.822632,91.086433 
	C418.264648,93.879349 446.250793,96.640961 474.613708,99.439751 
	C474.613708,196.481689 474.613708,293.483002 474.613708,390.863373 
	C428.310211,396.240234 381.911743,401.628143 334.750671,407.104584 
	C335.657440,397.678589 336.514526,388.488922 337.429993,379.305084 
	C340.269989,350.815094 343.128693,322.326996 345.986664,293.838776 
	C349.193359,261.874725 352.407043,229.911362 355.617798,197.947708 
	C357.996796,174.264725 360.833954,150.614410 362.524567,126.882385 
	C363.179230,117.692474 361.228271,108.318466 360.485046,99.026649 
	C360.209045,95.575668 359.992310,92.119934 359.719666,88.257301 
	C369.945282,89.222305 379.656006,90.138718 389.822632,91.086433 
z"/>
<path fill="#FEFEFE" opacity="1.000000" stroke="none" 
	d="
M317.066010,321.093750 
	C314.058472,351.192841 311.113708,380.839447 308.018250,410.470306 
	C307.883942,411.755951 306.629456,413.454193 305.447205,414.018463 
	C294.222626,419.375702 282.900635,424.528870 271.153229,429.950043 
	C267.845734,411.674408 263.795868,393.832336 261.702148,375.763550 
	C260.695221,367.074158 263.321472,357.949799 264.404236,349.034790 
	C267.914825,320.130066 271.467712,291.230499 275.013336,262.330017 
	C279.187103,228.309631 283.371979,194.290634 287.548798,160.270615 
	C290.002319,140.286545 292.415314,120.297348 294.955688,100.324341 
	C295.195251,98.441017 295.859497,96.405052 296.938477,94.870110 
	C302.290588,87.256416 307.848083,79.787079 313.594269,71.909012 
	C319.492584,74.929405 325.401733,77.830238 331.151764,81.018028 
	C332.156769,81.575195 332.898590,83.282173 333.077728,84.554443 
	C336.932526,111.933739 336.089661,139.244873 332.754639,166.659027 
	C329.318665,194.903290 326.902313,223.271652 324.047089,251.586441 
	C321.726105,274.603149 319.415833,297.620972 317.066010,321.093750 
z"/>
<path fill="#FEFEFE" opacity="1.000000" stroke="none" 
	d="
M272.183350,84.408585 
	C270.980774,88.819733 269.665985,92.870041 269.072418,97.023430 
	C267.664520,106.874619 266.598572,116.774681 265.378357,126.787247 
	C202.605865,126.787247 140.206741,126.787247 77.246490,126.787247 
	C78.432350,117.176575 79.538170,107.696526 80.840080,98.243477 
	C81.027039,96.885971 82.004555,95.540764 82.879395,94.389938 
	C89.423584,85.781357 95.959755,77.163910 102.701088,68.710846 
	C103.751274,67.393997 105.830231,66.137337 107.436256,66.133850 
	C166.218384,66.006210 225.000854,66.029839 283.783264,66.043785 
	C284.077271,66.043854 284.371185,66.201225 285.321198,66.472404 
	C280.921661,72.472107 276.660309,78.283356 272.183350,84.408585 
z"/>
<path fill="#FDFDFD" opacity="1.000000" stroke="none" 
	d="
M346.475037,43.488438 
	C325.007324,40.858418 303.940247,39.811172 282.738861,39.914017 
	C220.577118,40.215557 158.412949,40.045174 96.249886,39.950924 
	C93.137863,39.946209 91.165268,40.746902 89.248474,43.305161 
	C80.863373,54.496365 72.637558,65.852585 63.532417,76.442596 
	C57.442936,83.525146 55.058395,91.257843 54.040234,100.264656 
	C49.327522,141.953812 44.186653,183.594574 39.202724,225.253098 
	C35.504356,256.166199 31.812122,287.080109 28.109762,317.992737 
	C28.054874,318.451019 27.904470,318.897888 27.235546,319.371582 
	C27.156761,318.291870 27.009176,317.212189 27.009012,316.132507 
	C26.998131,244.636490 26.937563,173.140396 27.025158,101.644485 
	C27.068802,66.023224 50.249588,36.802902 84.912216,28.733917 
	C90.518631,27.428822 96.454666,27.074272 102.239105,27.068624 
	C201.400146,26.971796 300.561401,27.062674 399.722412,26.951334 
	C422.595215,26.925653 441.421295,35.402424 456.621063,52.302788 
	C457.147644,52.888298 457.607300,53.534031 458.768890,54.995659 
	C420.852112,51.121590 383.887482,47.344807 346.475037,43.488438 
z"/>
<path fill="#FEFEFE" opacity="1.000000" stroke="none" 
	d="
M245.020630,292.083557 
	C242.882263,310.862274 240.677032,329.180267 238.441376,347.750946 
	C175.936981,347.750946 113.723862,347.750946 50.872871,347.750946 
	C53.100590,329.037415 55.326950,310.335297 57.587761,291.343781 
	C59.138489,291.250153 60.412266,291.106201 61.686066,291.105957 
	C121.321213,291.094910 180.956360,291.092621 240.591492,291.118347 
	C242.045654,291.118988 243.499695,291.447327 245.020630,292.083557 
z"/>
<path fill="#FEFEFE" opacity="1.000000" stroke="none" 
	d="
M239.142273,399.781586 
	C241.316223,411.626587 243.424042,423.046051 245.598938,434.828918 
	C243.431839,434.828918 241.784912,434.856476 240.139114,434.824951 
	C186.872040,433.804932 133.605759,432.739197 80.336647,431.841187 
	C76.645874,431.778961 74.794525,430.808197 73.486900,427.195526 
	C67.389626,410.349976 60.972866,393.620117 54.677685,376.846130 
	C54.399269,376.104248 54.192505,375.335480 53.854374,374.270691 
	C114.241554,374.270691 174.267014,374.270691 234.578781,374.270691 
	C236.062653,382.547394 237.569397,390.951691 239.142273,399.781586 
z"/>
<path fill="#FEFEFE" opacity="1.000000" stroke="none" 
	d="
M138.991516,152.976456 
	C143.131531,152.976456 146.772064,152.976456 150.666672,152.976456 
	C146.464981,190.433014 142.311600,227.458878 138.125336,264.777954 
	C112.437462,264.777954 86.897697,264.777954 60.774754,264.777954 
	C65.211266,227.623230 69.638451,190.546585 74.124557,152.976456 
	C95.612000,152.976456 117.052017,152.976456 138.991516,152.976456 
z"/>
<path fill="#FEFEFE" opacity="1.000000" stroke="none" 
	d="
M181.040939,188.090393 
	C182.327194,176.224625 183.587357,164.814102 184.869858,153.201294 
	C210.624756,153.201294 236.205170,153.201294 262.160522,153.201294 
	C257.607605,190.499313 253.080566,227.585480 248.530518,264.859924 
	C223.279083,264.859924 198.360428,264.859924 172.865982,264.859924 
	C175.590714,239.342743 178.302780,213.944199 181.040939,188.090393 
z"/>
<path fill="#FCFCFC" opacity="1.000000" stroke="none" 
	d="
M34.548523,397.441406 
	C41.551502,415.970123 48.399628,434.145721 55.167557,452.351105 
	C56.386703,455.630554 58.188221,457.253479 62.008114,457.322601 
	C124.471947,458.452911 186.942856,459.383759 249.389954,461.146576 
	C271.998566,461.784790 294.008667,457.702087 316.249298,455.448212 
	C346.716522,452.360626 377.107147,448.517334 407.530487,444.996674 
	C423.568634,443.140686 439.605652,441.275299 455.645142,439.431030 
	C458.379639,439.116547 461.123962,438.887177 464.875061,438.519379 
	C457.010468,451.053680 447.307648,460.044189 435.307495,466.642578 
	C424.228821,472.734253 412.181915,474.956482 399.735596,474.964844 
	C300.439850,475.031708 201.143845,475.100525 101.848259,474.950653 
	C65.604317,474.895966 36.663311,451.644989 28.662336,416.785400 
	C27.884935,413.398346 27.295210,409.896851 27.216438,406.434845 
	C27.014303,397.550995 27.148928,388.659515 27.835325,379.622498 
	C30.012293,385.447845 32.189259,391.273163 34.548523,397.441406 
z"/>
</svg>